<svg width="156" height="189" viewBox="0 0 156 189" fill="none" xmlns="http://www.w3.org/2000/svg">
<g clip-path="url(#clip0_35_275)">
<path d="M29.3893 13.3233C27.5393 13.105 26.0439 12.2752 24.8995 10.8306C23.7518 9.3861 23.2893 7.74335 23.5087 5.9024C23.7281 4.0648 24.5619 2.57323 26.0169 1.43439C27.4685 0.295552 29.1192 -0.164686 30.9657 0.0536751C32.8156 0.272036 34.3077 1.10181 35.4555 2.54635C36.5998 3.9909 37.0623 5.63364 36.8429 7.47124C36.6235 9.30883 35.7897 10.8004 34.3381 11.9392C32.8831 13.0781 31.2358 13.5383 29.3893 13.32V13.3233ZM18.202 55.7056L22.8876 16.2662L35.0267 17.6939L30.3412 57.1333L18.202 55.7056Z" fill="white"/>
<path d="M47.6453 45.8122L41.1402 6.62816L53.1984 4.64612L53.6406 7.31348C56.2399 4.55205 59.5752 2.8354 63.643 2.16688C66.7183 1.65961 69.5471 1.88133 72.1262 2.82532C74.7053 3.77267 76.859 5.32136 78.5941 7.46802C80.3293 9.61803 81.4534 12.2484 81.9699 15.3593L85.9769 39.5066L73.9187 41.4887L70.1818 18.9706C69.8206 16.8004 68.8889 15.1778 67.3867 14.1062C65.8811 13.0345 64.0379 12.6784 61.8538 13.0379C60.3145 13.2899 59.0114 13.7871 57.9346 14.5194C56.8577 15.2551 55.98 16.1857 55.3015 17.3111L59.7035 43.8302L47.6453 45.8122Z" fill="white"/>
<path d="M22.9821 142.18L28.2719 98.9948C24.859 100.711 21.2132 101.276 17.3345 100.691C13.6043 100.13 10.3467 98.7193 7.56167 96.4517C4.77668 94.1875 2.72085 91.3958 1.39418 88.0834C0.0641388 84.7711 -0.313945 81.2336 0.256556 77.4711C0.827057 73.7119 2.25162 70.4466 4.53025 67.6717C6.80888 64.9002 9.63438 62.8577 13.0135 61.5441C16.3926 60.2306 19.9945 59.8611 23.8226 60.4355C25.7131 60.7211 27.4786 61.225 29.1226 61.954C30.7699 62.683 32.2688 63.6034 33.6258 64.7188L33.9634 62.4915L45.8966 64.2854L35.0639 143.994L22.9787 142.177L22.9821 142.18ZM20.9803 90.7609C22.6715 91.0162 24.248 90.986 25.7198 90.6769C27.1916 90.3678 28.5554 89.7732 29.8045 88.8998L31.8873 75.1665C30.9961 74.021 29.8652 73.077 28.5014 72.3413C27.1376 71.6055 25.6388 71.1151 23.9982 70.8665C22.0571 70.5742 20.241 70.7455 18.5396 71.3737C16.8416 72.0053 15.417 73.0064 14.2693 74.3771C13.1215 75.7477 12.4025 77.3736 12.1189 79.2549C11.832 81.1362 12.0345 82.9032 12.7266 84.5493C13.4186 86.1988 14.4786 87.5728 15.9166 88.6747C17.3513 89.7766 19.0392 90.472 20.9803 90.7642V90.7609Z" fill="white"/>
<path d="M60.4833 92.0376C57.4113 91.5035 54.8154 90.368 52.6954 88.6278C50.5754 86.8876 49.0564 84.7074 48.1381 82.0837C47.2233 79.46 47.0309 76.6213 47.5676 73.5609L51.7975 49.4504L63.8387 51.5433L59.8959 74.0245C59.5245 76.1443 59.8756 77.9718 60.9626 79.507C62.0428 81.0423 63.6531 81.993 65.7832 82.3659C67.3191 82.6313 68.7302 82.601 70.013 82.2617C71.2958 81.9258 72.4199 81.3345 73.3887 80.488L78.0338 54.0092L90.0717 56.1021L83.2088 95.2257L71.1709 93.1328L71.6367 90.4688C68.2644 92.2224 64.5476 92.7431 60.4866 92.0376H60.4833Z" fill="white"/>
<path d="M91.1654 92.9547L104.324 33.4597L116.261 36.0733L103.102 95.5684L91.1654 92.9547Z" fill="white"/>
<path d="M132.717 98.2489C128.724 97.446 125.294 95.8268 122.432 93.3845C119.562 90.9456 117.503 88.0162 116.247 84.5963C114.991 81.1798 114.748 77.5785 115.515 73.8025C116.281 70.0266 117.874 66.7982 120.291 64.1174C122.708 61.4399 125.652 59.515 129.122 58.3493C132.589 57.1836 136.225 56.982 140.023 57.748C143.868 58.5206 147.081 60.1264 149.667 62.5586C152.253 64.9942 154.069 67.9773 155.122 71.5047C156.176 75.0388 156.284 78.8618 155.446 82.9838L154.849 85.9266L126.969 80.3198C127.262 81.6568 127.772 82.883 128.494 83.995C129.217 85.1103 130.165 86.0543 131.344 86.8269C132.522 87.5996 133.852 88.1371 135.327 88.4327C136.954 88.7586 138.483 88.7989 139.921 88.5503C141.356 88.3051 142.639 87.8079 143.766 87.0621L150.258 95.6454C147.375 97.2109 144.546 98.1985 141.764 98.6084C138.986 99.0182 135.975 98.8973 132.717 98.2422V98.2489ZM128.434 71.9582L144.776 75.2471C144.641 73.8932 144.259 72.6805 143.628 71.6055C143 70.5372 142.193 69.6335 141.214 68.9012C140.232 68.1655 139.104 67.6716 137.822 67.413C136.488 67.1442 135.229 67.1476 134.048 67.4197C132.863 67.6918 131.796 68.2058 130.847 68.9583C129.895 69.7108 129.092 70.7119 128.427 71.9582H128.434Z" fill="white"/>
<path d="M72.7676 149.372C68.0314 149.984 64.3147 149.389 61.6209 147.589C58.927 145.791 57.31 142.832 56.7767 138.713L54.5217 121.365L46.5178 122.396L45.2114 112.345L53.2153 111.314L51.8987 101.185L63.6801 97.0195L65.3342 109.752L76.4066 108.327L77.7131 118.379L66.6406 119.803L68.585 134.769C68.8112 136.506 69.3547 137.685 70.2223 138.303C71.0898 138.925 72.4942 139.109 74.4386 138.858C75.4344 138.73 76.3391 138.552 77.1459 138.32C77.9527 138.092 78.8338 137.762 79.7959 137.336L81.0652 147.091C80.0119 147.582 78.6515 148.046 76.9873 148.489C75.3197 148.932 73.912 149.225 72.7642 149.372H72.7676Z" fill="white"/>
<path d="M93.3934 139.019C90.5949 138.686 88.1779 137.87 86.1254 136.57C84.0797 135.27 82.5539 133.627 81.5479 131.642C80.5453 129.659 80.1875 127.473 80.4744 125.087C80.9268 121.311 82.7125 118.56 85.8284 116.84C88.9475 115.117 93.0761 114.562 98.2207 115.17C101.316 115.537 104.27 116.266 107.079 117.354L107.312 115.416C107.548 113.427 107.089 111.871 105.934 110.753C104.776 109.634 102.947 108.922 100.449 108.626C98.9026 108.442 97.1337 108.485 95.1522 108.754C93.1706 109.023 90.8143 109.55 88.0867 110.336L84.8055 100.95C88.2218 99.8952 91.4861 99.1863 94.5952 98.8202C97.7042 98.4607 100.78 98.4574 103.828 98.8202C109.32 99.4719 113.432 101.283 116.166 104.252C118.901 107.222 119.988 111.069 119.42 115.789L116.396 141.061L104.412 139.64L104.699 137.255C102.97 138.159 101.188 138.74 99.3583 139.002C97.5287 139.261 95.5404 139.267 93.3934 139.012V139.019ZM92.0397 126.233C91.8912 127.476 92.3233 128.511 93.3394 129.337C94.3521 130.163 95.8374 130.691 97.7819 130.923C99.2334 131.094 100.607 131.107 101.921 130.96C103.227 130.812 104.446 130.479 105.573 129.955L106.181 124.886C105.067 124.452 103.919 124.09 102.741 123.797C101.559 123.505 100.344 123.287 99.095 123.139C96.9987 122.89 95.3345 123.035 94.1057 123.566C92.8769 124.1 92.1883 124.99 92.0397 126.233Z" fill="white"/>
<path d="M39.3376 188.59C35.6175 189.218 32.0797 188.889 28.7242 187.602C25.3687 186.316 22.5399 184.307 20.2376 181.572C17.9353 178.838 16.4635 175.599 15.8255 171.847C15.1875 168.098 15.5149 164.553 16.8078 161.211C18.1007 157.872 20.1431 155.05 22.9416 152.752C25.7367 150.454 29.0449 148.979 32.8629 148.338C34.6993 148.029 36.4986 147.951 38.2573 148.113C40.0195 148.274 41.7141 148.647 43.3446 149.235L40.833 134.504L52.5671 130.62L61.712 184.287L49.8125 186.295L49.3197 183.41C46.5853 186.208 43.2534 187.935 39.3376 188.597V188.59ZM39.6785 178.025C41.363 177.739 42.8551 177.222 44.1548 176.469C45.4544 175.717 46.565 174.729 47.4765 173.51L45.1439 159.817C43.9353 159.007 42.5682 158.463 41.0389 158.187C39.5131 157.912 37.9333 157.912 36.296 158.187C34.3583 158.513 32.6874 159.242 31.2729 160.368C29.8585 161.496 28.8221 162.887 28.1605 164.55C27.4988 166.21 27.33 167.977 27.6474 169.851C27.9681 171.729 28.7141 173.342 29.8889 174.689C31.0636 176.039 32.5051 177.017 34.2132 177.615C35.9247 178.216 37.7442 178.351 39.6785 178.025Z" fill="white"/>
<path d="M87.6209 189C83.5464 189 79.8735 188.086 76.6058 186.259C73.3347 184.431 70.7455 181.969 68.8349 178.865C66.9242 175.761 65.9688 172.284 65.9688 168.431C65.9688 164.577 66.9242 161.087 68.8349 157.956C70.7455 154.828 73.3347 152.352 76.6058 150.522C79.8769 148.694 83.5497 147.78 87.6209 147.78C91.692 147.78 95.3682 148.694 98.6359 150.522C101.907 152.349 104.493 154.828 106.407 157.956C108.318 161.084 109.273 164.574 109.273 168.431C109.273 172.287 108.318 175.764 106.407 178.865C104.493 181.969 101.907 184.435 98.6359 186.259C95.3648 188.086 91.692 189 87.6209 189ZM87.6209 178.492C89.4809 178.492 91.1418 178.042 92.6001 177.141C94.0584 176.241 95.2163 175.028 96.0704 173.5C96.9244 171.975 97.3532 170.285 97.3532 168.434C97.3532 166.583 96.9244 164.819 96.0704 163.291C95.2129 161.765 94.0449 160.549 92.563 159.649C91.081 158.749 89.4337 158.299 87.6209 158.299C85.8081 158.299 84.1607 158.749 82.6788 159.649C81.1968 160.549 80.0255 161.762 79.1714 163.291C78.3139 164.819 77.8886 166.532 77.8886 168.434C77.8886 170.335 78.3139 171.975 79.1714 173.5C80.0288 175.028 81.1968 176.241 82.6788 177.141C84.1607 178.042 85.8081 178.492 87.6209 178.492Z" fill="white"/>
<path d="M135.978 180.01C132.329 180.961 128.835 181.415 125.497 181.378C122.162 181.341 119.133 180.796 116.413 179.742L119.954 170.362C122.766 171.182 125.257 171.659 127.424 171.793C129.588 171.928 131.647 171.743 133.595 171.236C135.54 170.728 137.011 170.05 138.011 169.196C139.006 168.343 139.385 167.453 139.142 166.536C138.952 165.81 138.48 165.299 137.727 165.004C136.974 164.712 135.891 164.641 134.476 164.802L126.509 165.632C122.513 166.049 119.245 165.541 116.71 164.107C114.175 162.672 112.497 160.381 111.67 157.23C110.984 154.617 111.062 152.205 111.909 149.991C112.76 147.78 114.296 145.855 116.517 144.216C118.735 142.576 121.574 141.31 125.031 140.41C127.853 139.677 130.753 139.338 133.727 139.392C136.708 139.445 139.59 139.936 142.379 140.867L138.743 149.883C136.33 149.218 134.105 148.852 132.059 148.788C130.017 148.724 128.045 148.939 126.148 149.433C124.639 149.826 123.488 150.397 122.698 151.146C121.905 151.895 121.618 152.682 121.834 153.505C122.037 154.281 122.543 154.808 123.343 155.09C124.146 155.372 125.406 155.419 127.12 155.231L135.091 154.398C139.023 153.945 142.284 154.428 144.867 155.853C147.449 157.277 149.137 159.491 149.927 162.491C150.589 165.007 150.417 167.433 149.417 169.764C148.415 172.092 146.764 174.165 144.462 175.979C142.159 177.793 139.327 179.137 135.968 180.01H135.978Z" fill="white"/>
<path d="M115.734 29.2805C121.808 29.2805 126.732 24.3803 126.732 18.3356C126.732 12.2908 121.808 7.39062 115.734 7.39062C109.66 7.39062 104.736 12.2908 104.736 18.3356C104.736 24.3803 109.66 29.2805 115.734 29.2805Z" fill="#FF4824"/>
</g>
<defs>
<clipPath id="clip0_35_275">
<rect width="156" height="189" fill="white"/>
</clipPath>
</defs>
</svg>
